<svg width="26" height="26" viewBox="0 0 26 26" fill="none" xmlns="http://www.w3.org/2000/svg">
<path d="M18.1353 0.314819H8.76025C4.44619 0.314819 0.947754 3.81326 0.947754 8.12732V17.5023C0.947754 21.8164 4.44619 25.3148 8.76025 25.3148H18.1353C22.4493 25.3148 25.9478 21.8164 25.9478 17.5023V8.12732C25.9478 3.81326 22.4493 0.314819 18.1353 0.314819ZM23.604 17.5023C23.604 20.5179 21.1509 22.9711 18.1353 22.9711H8.76025C5.74463 22.9711 3.2915 20.5179 3.2915 17.5023V8.12732C3.2915 5.11169 5.74463 2.65857 8.76025 2.65857H18.1353C21.1509 2.65857 23.604 5.11169 23.604 8.12732V17.5023Z" fill="url(#paint0_linear)"/>
<path d="M7.31556 11.6071C6.64857 14.9936 8.85348 18.28 12.24 18.947C15.6265 19.614 18.913 17.4091 19.5799 14.0226C20.2469 10.6361 18.042 7.34963 14.6555 6.68264C11.269 6.01565 7.98255 8.22056 7.31556 11.6071ZM17.2804 13.5697C16.8643 15.6822 14.8054 17.0635 12.6929 16.6475C10.5788 16.2311 9.19905 14.1725 9.61513 12.06C10.0312 9.94744 12.0885 8.56583 14.2026 8.98221C16.3151 9.39829 17.6964 11.4571 17.2804 13.5697Z" fill="url(#paint1_linear)"/>
<path d="M20.1666 6.92892C20.6265 6.92892 20.9994 6.55606 20.9994 6.09611C20.9994 5.63617 20.6265 5.26331 20.1666 5.26331C19.7066 5.26331 19.3337 5.63617 19.3337 6.09611C19.3337 6.55606 19.7066 6.92892 20.1666 6.92892Z" fill="url(#paint2_linear)"/>
<defs>
<linearGradient id="paint0_linear" x1="3.23627" y1="23.0265" x2="23.6592" y2="2.60318" gradientUnits="userSpaceOnUse">
<stop stop-color="#FFC107"/>
<stop offset="0.507" stop-color="#F44336"/>
<stop offset="0.99" stop-color="#9C27B0"/>
</linearGradient>
<linearGradient id="paint1_linear" x1="16.9297" y1="18.0048" x2="9.96575" y2="7.62484" gradientUnits="userSpaceOnUse">
<stop stop-color="#FFC107"/>
<stop offset="0.507" stop-color="#F44336"/>
<stop offset="0.99" stop-color="#9C27B0"/>
</linearGradient>
<linearGradient id="paint2_linear" x1="19.5777" y1="6.6851" x2="20.7554" y2="5.50728" gradientUnits="userSpaceOnUse">
<stop stop-color="#FFC107"/>
<stop offset="0.507" stop-color="#F44336"/>
<stop offset="0.99" stop-color="#9C27B0"/>
</linearGradient>
</defs>
</svg>
